<?xml version="1.0" encoding="utf-8"?>
<svg version="1.1" id="图层_1" xmlns="http://www.w3.org/2000/svg" xmlns:xlink="http://www.w3.org/1999/xlink" width="123" height="44" viewBox="0 0 123 44" style="enable-background:new 0 0 123 44;" xml:space="preserve">
	<style type="text/css">
	.st0{fill:#292525;}
	.st1{fill:#DA282A;}
	.st2{fill:#FFFFFF;}
	</style>
	<path class="st0" d="M59.8,31.7C59.8,31.7,59.7,31.7,59.8,31.7c-0.1,0-0.2-0.1-0.2-0.1l-0.9-1.3c0,0,0-0.1,0-0.1c0,0,0-0.1,0-0.1
	c0,0,0-0.1,0.1-0.1c0,0,0.1,0,0.1,0c6.6-0.6,11.8-2.9,17-7.5c0,0,0,0,0.1,0c0,0,0.1,0,0.1,0c0,0,0.1,0,0.1,0c0,0,0,0,0.1,0.1
	l0.9,1.1c0,0,0.1,0.1,0,0.2c0,0.1,0,0.1-0.1,0.1C71.6,28.6,66.6,30.8,59.8,31.7L59.8,31.7z" />
	<path class="st0" d="M69.2,12.2h-1.5c-0.1,0-0.2,0.1-0.2,0.2v12.4c0,0.1,0.1,0.2,0.2,0.2h1.5c0.1,0,0.2-0.1,0.2-0.2V12.5
	C69.4,12.3,69.3,12.2,69.2,12.2z" />
	<path class="st0" d="M60.7,23.5H59c0,0-0.1,0-0.1,0c0,0-0.1,0-0.1-0.1c0,0,0-0.1,0-0.1c0,0,0-0.1,0-0.1l3.6-7.9c0,0,0-0.1,0.1-0.1
	c0,0,0.1,0,0.1,0h1.7c0,0,0.1,0,0.1,0c0,0,0.1,0,0.1,0.1c0,0,0,0.1,0,0.1c0,0,0,0.1,0,0.1l-3.6,7.9c0,0,0,0.1-0.1,0.1
	C60.8,23.5,60.7,23.5,60.7,23.5z" />
	<path class="st0" d="M75.6,21c0,0-0.1,0-0.1,0c0,0-0.1,0-0.1-0.1l-3.1-5.4c0,0,0-0.1,0-0.1c0,0,0-0.1,0-0.1c0,0,0-0.1,0.1-0.1
	c0,0,0.1,0,0.1,0h1.8c0,0,0.1,0,0.1,0c0,0,0.1,0,0.1,0.1l3.1,5.4c0,0,0,0.1,0,0.1c0,0,0,0.1,0,0.1c0,0,0,0.1-0.1,0.1
	c0,0-0.1,0-0.1,0H75.6L75.6,21z" />
	<path class="st0" d="M108.5,31.6C108.5,31.6,108.4,31.6,108.5,31.6l-1.4-0.5c-0.1,0-0.1-0.1-0.1-0.1c0,0,0-0.1,0-0.1
	c0,0,0-0.1,0-0.1l0.8-2c0.3-0.8,0.6-1.6,0.8-2.5c0.3-1.3,0.4-2.5,0.4-3.8V14c0-0.1,0-0.1,0.1-0.2c0,0,0.1-0.1,0.2-0.1
	c5.3,0.1,7.5-0.5,10.3-1.3l0.7-0.2c0,0,0.1,0,0.1,0s0.1,0,0.1,0.1l0.8,1.2c0,0,0,0.1,0,0.1c0,0,0,0.1,0,0.1c0,0,0,0.1-0.1,0.1
	c0,0-0.1,0-0.1,0l-0.3,0.1c-2.9,0.9-5,1.5-9.8,1.6c-0.1,0-0.1,0-0.1,0.1c0,0-0.1,0.1-0.1,0.1v6.9c0,1.4-0.2,2.7-0.5,4.1l-0.1,0.3
	c-0.2,0.8-0.4,1.7-0.8,2.5l-0.8,2C108.7,31.5,108.6,31.6,108.5,31.6C108.6,31.6,108.5,31.6,108.5,31.6z" />
	<path class="st0" d="M105.6,22c0,0-0.1,0-0.1,0c0,0-0.1,0-0.1-0.1L103,18c0,0,0,0,0-0.1c0,0,0-0.1,0-0.1c0,0,0-0.1,0-0.1
	c0,0,0,0,0.1-0.1l1.8-1.1c0,0,0.1,0,0.1-0.1c0,0,0-0.1,0-0.1c0,0,0-0.1,0-0.1c0,0,0-0.1,0-0.1l-1.9-2.9c0,0,0-0.1,0-0.1
	c0,0,0-0.1,0-0.1c0,0,0-0.1,0-0.1c0,0,0,0,0.1-0.1l1.3-0.8c0,0,0.1,0,0.2,0c0.1,0,0.1,0,0.1,0.1l2.3,3.6c0,0,0,0,0,0.1l0.6,0.9
	c0,0,0,0.1,0,0.1c0,0,0,0.1,0,0.1c0,0,0,0.1,0,0.1c0,0,0,0-0.1,0.1l-1.8,1.1c0,0-0.1,0-0.1,0.1c0,0,0,0.1,0,0.1c0,0,0,0.1,0,0.1
	c0,0,0,0.1,0,0.1l1.4,2.2c0,0,0,0.1,0,0.1c0,0,0,0.1,0,0.1c0,0.1,0,0.1-0.1,0.1l-1.3,0.8C105.7,22,105.6,22,105.6,22z" />
	<path class="st0" d="M104.4,31.8C104.4,31.8,104.4,31.8,104.4,31.8l-1.5-0.6c0,0-0.1,0-0.1,0c0,0,0,0,0-0.1c0,0,0-0.1,0-0.1
	c0,0,0-0.1,0-0.1l3.3-8.3c0,0,0-0.1,0-0.1c0,0,0,0,0.1,0s0.1,0,0.1,0c0,0,0.1,0,0.1,0l1.4,0.6c0,0,0.1,0,0.1,0c0,0,0,0,0,0.1
	c0,0,0,0.1,0,0.1c0,0,0,0.1,0,0.1l-3.3,8.3c0,0,0,0,0,0.1C104.6,31.7,104.6,31.7,104.4,31.8C104.5,31.8,104.5,31.8,104.4,31.8z" />
	<path class="st0" d="M120.8,31.7C120.8,31.7,120.8,31.7,120.8,31.7c-0.1,0-0.2-0.1-0.2-0.1l-1.6-2.3c-0.3-0.4-0.6-0.8-0.8-1.3
	l-0.8-1.6c-0.3-0.6-0.6-1.3-0.8-2l-1.5-5.7c0,0,0-0.1-0.1-0.1c0,0-0.1,0-0.1,0c-0.4,0-0.7,0-1.1,0.1c0,0-0.1,0-0.1,0
	c0,0,0,0.1,0,0.1v10.9c0,0.1,0,0.1,0.1,0.1c0,0,0.1,0.1,0.1,0.1h2.6c0.1,0,0.1,0,0.2,0.1c0,0,0.1,0.1,0.1,0.2v1.4
	c0,0.1,0,0.1-0.1,0.2c0,0-0.1,0.1-0.2,0.1h-4.3c-0.1,0-0.1,0-0.2-0.1c0,0-0.1-0.1-0.1-0.2V17.6c0,0,0,0,0-0.1V17
	c0-0.1,0-0.1,0.1-0.2c0,0,0,0,0.1,0c0,0,0.1,0,0.1,0c2.4,0,4.7-0.3,7-0.8l0.9-0.2c0,0,0.1,0,0.1,0c0,0,0.1,0.1,0.1,0.1l0.7,1.3
	c0,0,0,0.1,0,0.1c0,0,0,0.1,0,0.1c0,0,0,0.1-0.1,0.1c0,0-0.1,0-0.1,0l-0.9,0.2c-1,0.2-1.9,0.4-2.9,0.6c0,0,0,0-0.1,0c0,0,0,0,0,0
	c0,0,0,0,0,0.1c0,0,0,0,0,0.1l0.9,3.5c0,0,0,0.1,0,0.1c0,0,0,0,0.1,0.1c0,0,0.1,0,0.1,0c0,0,0.1,0,0.1,0l2.9-1.2c0,0,0.1,0,0.1,0
	c0,0,0.1,0,0.1,0c0,0,0.1,0,0.1,0c0,0,0,0,0,0.1l0.5,1.3c0,0.1,0,0.1,0,0.2c0,0.1-0.1,0.1-0.1,0.1l-3.2,1.3c0,0-0.1,0-0.1,0.1
	c0,0,0,0.1,0,0.1c0.2,0.6,0.4,1.1,0.6,1.6l0.7,1.3c0.2,0.4,0.4,0.8,0.7,1.2l1.9,2.7c0,0,0,0.1,0,0.1c0,0,0,0.1,0,0.1
	c0,0,0,0.1,0,0.1c0,0-0.1,0-0.1,0.1L120.8,31.7C120.9,31.7,120.9,31.7,120.8,31.7z" />
	<path class="st0" d="M86.8,22.3h-1.5c-0.1,0-0.1,0-0.2-0.1c0,0-0.1-0.1-0.1-0.2v-4c0,0,0-0.1-0.1-0.1c0,0-0.1-0.1-0.1-0.1h-4
	c-0.1,0-0.1,0-0.2-0.1c0,0-0.1-0.1-0.1-0.2v-1.4c0-0.1,0-0.1,0.1-0.2c0,0,0.1-0.1,0.2-0.1h4c0,0,0.1,0,0.1-0.1c0,0,0.1-0.1,0.1-0.1
	v-3.5c0-0.1,0-0.1,0.1-0.2c0,0,0.1-0.1,0.2-0.1h1.5c0.1,0,0.1,0,0.2,0.1c0,0,0.1,0.1,0.1,0.2V16c0,0,0,0.1,0.1,0.1
	c0,0,0.1,0.1,0.1,0.1h4c0.1,0,0.1,0,0.2,0.1c0,0,0.1,0.1,0.1,0.2v1.4c0,0.1,0,0.1-0.1,0.2c0,0-0.1,0.1-0.2,0.1h-4c0,0,0,0-0.1,0
	c0,0,0,0-0.1,0c0,0,0,0,0,0.1c0,0,0,0,0,0.1v4c0,0.1,0,0.1-0.1,0.2C86.9,22.3,86.9,22.3,86.8,22.3z" />
	<path class="st0" d="M83,16.2c0,0-0.1,0-0.1,0c0,0-0.1,0-0.1-0.1l-1.5-2.8c0-0.1,0-0.1,0-0.2c0-0.1,0.1-0.1,0.1-0.1l1.4-0.7
	c0.1,0,0.1,0,0.2,0c0.1,0,0.1,0.1,0.1,0.1l1.5,2.8c0,0,0,0.1,0,0.1c0,0,0,0.1,0,0.1c0,0.1-0.1,0.1-0.1,0.1L83,16.2
	C83,16.2,83,16.2,83,16.2z" />
	<path class="st0" d="M89,16.2c0,0-0.1,0-0.1,0l-1.2-1c0,0-0.1-0.1-0.1-0.1c0-0.1,0-0.1,0-0.2l2.1-2.5c0,0,0.1-0.1,0.1-0.1
	c0.1,0,0.1,0,0.2,0l1.2,1c0,0,0.1,0.1,0.1,0.1c0,0.1,0,0.1,0,0.2l-2.1,2.5C89.1,16.1,89.1,16.2,89,16.2C89.1,16.2,89,16.2,89,16.2z" />
	<path class="st0" d="M82.2,22c-0.1,0-0.1,0-0.1-0.1l-1.2-1c0,0,0,0-0.1-0.1c0,0,0-0.1,0-0.1c0-0.1,0-0.1,0.1-0.2l2.2-2.6
	c0,0,0,0,0.1-0.1c0,0,0.1,0,0.1,0c0,0,0.1,0,0.1,0c0,0,0.1,0,0.1,0l1.2,1c0,0,0,0,0.1,0.1c0,0,0,0.1,0,0.1c0,0,0,0.1,0,0.1
	c0,0,0,0.1,0,0.1l-2.2,2.6C82.4,21.9,82.3,21.9,82.2,22C82.3,22,82.3,22,82.2,22z" />
	<path class="st0" d="M89.8,21.9C89.7,21.9,89.7,21.8,89.8,21.9c-0.1,0-0.2-0.1-0.2-0.1l-1.9-2.6c0,0,0,0,0-0.1c0,0,0-0.1,0-0.1
	c0,0,0-0.1,0-0.1c0,0,0,0,0.1-0.1L89,18c0,0,0,0,0.1,0c0,0,0.1,0,0.1,0c0,0,0.1,0,0.1,0c0,0,0,0,0.1,0.1l1.9,2.6c0,0,0,0.1,0,0.2
	c0,0.1,0,0.1-0.1,0.1l-1.2,0.9C89.8,21.8,89.8,21.9,89.8,21.9z" />
	<path class="st0" d="M91.6,30.2C91.6,30.2,91.7,30.2,91.6,30.2c0.1,0.1,0.1,0.1,0.1,0.2c0,0,0,0.1,0,0.1c0,0,0,0.1-0.1,0.1l-1.2,1
	c-0.1,0.1-0.1,0.1-0.2,0.1c-0.1,0-0.2,0-0.3,0l-3.6-1.7c0,0-0.1,0-0.1,0s-0.1,0-0.1,0l-1.4,0.6c-0.6,0.3-1.3,0.5-1.9,0.7l-1.7,0.5
	c-0.1,0-0.1,0-0.2,0c-0.1,0-0.1-0.1-0.1-0.1l-0.3-1.1c0-0.1,0-0.1,0-0.2c0-0.1,0-0.1,0-0.2c0-0.1,0.1-0.1,0.1-0.1
	c0,0,0.1-0.1,0.2-0.1l1.8-0.6c0.3-0.1,0.7-0.2,1-0.4l0.4-0.2l-0.8-0.4l-1.8-0.8c0,0-0.1,0-0.1-0.1c0,0,0,0,0-0.1c0,0,0-0.1,0-0.1
	c0,0,0-0.1,0-0.1l1-1.8c0,0,0-0.1,0-0.1c0,0,0-0.1,0-0.1c0,0-0.1-0.1-0.1-0.1c0,0-0.1,0-0.1,0h-1.1c-0.1,0-0.2,0-0.3-0.1
	c-0.1-0.1-0.1-0.2-0.1-0.3v-0.9c0-0.1,0-0.2,0.1-0.3c0.1-0.1,0.2-0.1,0.3-0.1h2.5l0.3-0.5c0,0,0-0.1,0.1-0.1c0,0,0.1,0,0.1,0H86
	c0,0,0.1,0,0.1,0c0,0,0.1,0,0.1,0.1c0,0,0,0.1,0,0.1c0,0,0,0.1,0,0.1L86,23.3h5.2c0.1,0,0.2,0,0.3,0.1c0.1,0.1,0.1,0.2,0.1,0.3v1.6
	c0,0.1,0,0.2,0,0.2c0,0.1-0.1,0.1-0.1,0.2l-1,1c-0.7,0.7-1.4,1.3-2.2,1.8L91.6,30.2z M84.4,26.9l1.8,0.8c0,0,0.1,0,0.1,0
	c0,0,0.1,0,0.1,0l0.9-0.6c0.6-0.4,1.1-0.9,1.7-1.4l0.6-0.6h-4.4c-0.1,0-0.2,0-0.2,0.1c-0.1,0-0.1,0.1-0.2,0.2l-0.6,1
	c0,0,0,0.1-0.1,0.2c0,0.1,0,0.1,0,0.2c0,0.1,0,0.1,0.1,0.1C84.3,26.9,84.3,26.9,84.4,26.9z" />
	<path class="st0" d="M98,28l2.1,2.3c0,0,0.1,0.1,0.1,0.2c0,0.1,0,0.1-0.1,0.2l-1.1,1c0,0,0,0-0.1,0c0,0-0.1,0-0.1,0
	c-0.1,0-0.1,0-0.2-0.1L96.2,29c0,0-0.1,0-0.1-0.1c0,0-0.1,0-0.1,0c0,0-0.1,0-0.1,0c0,0-0.1,0-0.1,0.1l-2.5,2.7c0,0-0.1,0.1-0.2,0.1
	c-0.1,0-0.1,0-0.2-0.1l-1.1-1c0,0,0,0,0-0.1c0,0,0-0.1,0-0.1c0,0,0-0.1,0-0.1c0,0,0-0.1,0-0.1l2-2.1l0.8-0.9c0,0,0.1-0.1,0.1-0.1
	c0-0.1,0-0.1-0.1-0.1l-0.2-0.3c-0.8-1-1.3-2.2-1.6-3.5l-0.2-0.7c-0.1-0.7-0.2-1.3-0.2-2v-4c0-0.1,0-0.1,0.1-0.2c0,0,0,0,0.1,0
	c0,0,0.1,0,0.1,0h1.5c0.1,0,0.1,0,0.2,0.1c0,0,0.1,0.1,0.1,0.2v3.8c0,0.6,0.1,1.3,0.2,1.9l0.1,0.3c0.2,1,0.6,2,1.2,2.9
	c0,0,0,0,0.1,0c0,0,0,0,0.1,0c0,0,0,0,0.1,0c0,0,0,0,0.1,0c0.6-0.9,1-1.9,1.3-3l0-0.1c0.2-0.7,0.2-1.3,0.2-2v-4.4c0,0,0-0.1,0-0.1
	c0,0-0.1,0-0.1,0h-4.9c-0.1,0-0.1,0-0.2-0.1c0,0-0.1-0.1-0.1-0.2v-2.9c0-0.1,0-0.1,0.1-0.2c0,0,0.1-0.1,0.2-0.1h1.5
	c0.1,0,0.1,0,0.2,0.1c0,0,0.1,0.1,0.1,0.2v1.3h5c0.1,0,0.1,0,0.2,0.1c0,0,0.1,0.1,0.1,0.2v1.4v5c0,0.7-0.1,1.4-0.2,2.2l-0.2,0.7
	c-0.3,1.2-0.8,2.4-1.6,3.4L97.4,27c0,0-0.1,0.1-0.1,0.2c0,0.1,0,0.1,0.1,0.2L98,28z" />
	<path class="st1" d="M22,44c12.2,0,22-9.8,22-22C44,9.8,34.2,0,22,0C9.8,0,0,9.8,0,22C0,34.2,9.8,44,22,44z" />
	<path class="st2" d="M32,11.3l-21.2,3.6c-0.2,0-0.4,0.1-0.6,0.3c-0.1,0.2-0.2,0.4-0.3,0.6l-0.2,1.8c0,0.2,0,0.3,0,0.4
	c0.1,0.1,0.1,0.3,0.2,0.4c0.1,0.1,0.2,0.2,0.4,0.2c0.1,0,0.3,0.1,0.4,0l4.1-0.7v14.7c0,0.2,0,0.4,0.1,0.5c0.1,0.2,0.2,0.3,0.4,0.4
	c0.2,0.1,0.3,0.1,0.5,0.1c0.2,0,0.4-0.1,0.5-0.2l1.6-1c0.2-0.1,0.3-0.3,0.4-0.5c0.1-0.2,0.2-0.4,0.2-0.6v-14l5.7-0.9v10.3
	c0,0.6,0.2,1.3,0.5,1.8l2.5,4.7c0.1,0.1,0.2,0.3,0.3,0.3c0.1,0.1,0.3,0.1,0.4,0.1h2.2c0.1,0,0.3,0,0.4-0.1c0.1-0.1,0.2-0.2,0.3-0.3
	c0.1-0.1,0.1-0.3,0.1-0.4c0-0.1,0-0.3-0.1-0.4l-2.5-4.9C28.2,27,28,26.4,28,25.7V15.7l4-0.7c0.2,0,0.4-0.1,0.5-0.3
	c0.1-0.2,0.2-0.4,0.3-0.6l0.2-1.8c0-0.2,0-0.3,0-0.5s-0.1-0.3-0.2-0.4s-0.2-0.2-0.4-0.2C32.3,11.3,32.1,11.2,32,11.3z" />
</svg>